<?xml version="1.0" encoding="UTF-8" standalone="no"?>
<!-- Created with Inkscape (http://www.inkscape.org/) -->

<svg
   width="309.43997mm"
   height="72.00457mm"
   viewBox="0 0 309.43997 72.00457"
   version="1.1"
   id="svg1"
   xml:space="preserve"
   inkscape:version="1.3.1 (9b9bdc1480, 2023-11-25, custom)"
   sodipodi:docname="linea.svg"
   xmlns:inkscape="http://www.inkscape.org/namespaces/inkscape"
   xmlns:sodipodi="http://sodipodi.sourceforge.net/DTD/sodipodi-0.dtd"
   xmlns="http://www.w3.org/2000/svg"
   xmlns:svg="http://www.w3.org/2000/svg"><sodipodi:namedview
     id="namedview1"
     pagecolor="#ffffff"
     bordercolor="#000000"
     borderopacity="0.25"
     inkscape:showpageshadow="2"
     inkscape:pageopacity="0.0"
     inkscape:pagecheckerboard="0"
     inkscape:deskcolor="#d1d1d1"
     inkscape:document-units="mm"
     inkscape:zoom="0.72693603"
     inkscape:cx="568.82584"
     inkscape:cy="-134.81241"
     inkscape:window-width="1850"
     inkscape:window-height="1016"
     inkscape:window-x="0"
     inkscape:window-y="0"
     inkscape:window-maximized="1"
     inkscape:current-layer="layer1" /><defs
     id="defs1" /><g
     inkscape:label="Layer 1"
     inkscape:groupmode="layer"
     id="layer1"
     transform="translate(45.39001,-184.1242)"><path
       style="fill:#000000"
       d="m -35.450337,255.94577 c -6.215547,-1.3631 -10.846001,-8.03614 -9.788828,-14.10688 0.416806,-2.39347 1.057056,-3.96672 2.49384,-6.12795 3.082935,-4.6374 8.206693,-7.92268 15.222851,-9.76068 3.447902,-0.90324 9.680558,-1.12796 13.935582,-0.50246 5.430704,0.79833 9.120785,1.90294 22.2025577,6.64624 11.4475793,4.15075 16.0768813,5.43457 22.4591763,6.22845 3.469452,0.43156 9.554762,0.1806 12.91535,-0.53264 2.434574,-0.5167 7.026564,-1.97584 7.39465,-2.34971 0.09419,-0.0957 -0.122265,-1.30504 -0.481017,-2.68749 -0.950331,-3.66208 -0.466481,-6.52364 1.448422,-8.56617 2.226584,-2.37499 6.372405,-2.31664 9.150552,0.12879 2.583899,2.27444 3.331479,5.62995 1.90423,8.54714 -0.730658,1.49341 -2.855476,3.81691 -4.538627,4.96301 -0.497381,0.33868 -0.905142,0.6956 -0.906137,0.79315 -0.0054,0.53313 3.869546,3.5608 5.903916,4.61297 8.690417,4.49464 19.197823,4.94404 30.435361,1.30171 2.220205,-0.71961 8.153688,-3.27051 8.565698,-3.68252 0.0522,-0.0522 -1.35007,-1.5087 -3.116202,-3.23662 -9.306917,-9.10551 -15.412138,-18.96339 -17.922325,-28.93854 -0.602928,-2.39595 -0.700336,-3.34228 -0.708095,-6.87916 -0.0069,-3.13786 0.101833,-4.50496 0.462889,-5.82084 2.193605,-7.99461 8.213733,-11.50503 15.30893,-8.92684 2.441216,0.88707 5.946953,3.294 7.941403,5.45232 1.95691,2.1177 3.2921,4.28343 4.62962,7.50942 0.52792,1.27331 1.04906,2.3151 1.15808,2.3151 0.10902,0 0.27889,-0.32144 0.3775,-0.71431 0.34081,-1.35789 2.72323,-6.41259 3.95055,-8.38175 2.38479,-3.82623 6.08311,-7.163 9.37262,-8.45633 1.55337,-0.61073 4.645,-0.84009 6.36163,-0.47193 2.45688,0.52691 4.25395,1.58939 6.53173,3.86176 3.58979,3.58128 5.33592,7.87987 5.59176,13.76569 0.50626,11.64717 -6.20512,23.69173 -18.84833,33.82611 -2.5837,2.071 -7.24388,5.3166 -9.56176,6.65931 -0.46503,0.26939 -0.77847,0.59826 -0.69654,0.73084 0.43884,0.71004 6.67717,3.03748 10.20234,3.80637 3.4249,0.74701 10.57509,0.68079 14.20468,-0.13155 3.53701,-0.79163 5.87314,-1.63345 9.08222,-3.27276 2.60528,-1.33087 7.08423,-4.48879 8.52116,-6.00792 l 0.78085,-0.82552 -1.35163,-1.38515 c -2.9487,-3.02183 -4.18295,-6.10334 -3.99758,-9.98055 0.0968,-2.02561 0.21792,-2.5117 0.90072,-3.6161 1.35366,-2.1895 3.74474,-3.07554 6.38583,-2.36634 2.60227,0.69878 4.5885,2.44613 5.8579,5.15338 0.62996,1.34351 0.69602,1.78049 0.68476,4.52967 -0.0121,2.96178 -0.14641,3.6425 -1.31508,6.66667 -0.14076,0.36426 0.11787,0.53898 1.37077,0.92605 2.56243,0.79161 8.60467,0.65477 12.65677,-0.28664 4.57506,-1.06291 11.16757,-3.30976 21.39606,-7.29218 17.30564,-6.73788 25.88214,-9.19986 35.16824,-10.09544 3.71598,-0.35837 9.66479,-0.0405 13.2736,0.70928 8.47511,1.76082 14.10076,5.80706 16.03654,11.53425 0.45807,1.35523 0.54638,2.12968 0.46323,4.06214 -0.0917,2.13024 -0.20345,2.57242 -1.03683,4.10105 -1.84353,3.38148 -5.83518,5.47715 -9.96288,5.23065 -3.14229,-0.18766 -5.27974,-1.51456 -4.5715,-2.83791 0.36347,-0.67916 1.10213,-0.88616 1.97624,-0.55383 3.5105,1.33469 8.21688,-2.82857 8.21763,-7.2693 2.1e-4,-1.25338 -0.15212,-1.84706 -0.72376,-2.82075 -3.478,-5.92424 -12.67955,-8.24085 -25.55412,-6.43359 -6.91313,0.97043 -13.15389,2.94482 -28.22411,8.92922 -9.37391,3.72239 -14.25363,5.41804 -19.08953,6.63341 -4.98378,1.25254 -7.46183,1.57888 -11.99901,1.58018 -4.12337,0.001 -5.95994,-0.25379 -9.59659,-1.33228 l -2.32055,-0.68818 -2.30966,2.24674 c -3.34898,3.25773 -6.12129,5.02195 -11.04091,7.02613 -5.43061,2.21235 -9.82655,3.06311 -15.74271,3.04672 -7.32426,-0.0203 -13.9078,-1.81196 -20.6744,-5.62642 l -2.31764,-1.30651 -3.09973,1.19802 c -6.043165,2.33563 -11.498772,3.73564 -17.004168,4.3636 -3.459936,0.39464 -11.281615,0.19131 -14.322203,-0.37233 -7.389708,-1.36984 -13.374691,-4.17614 -17.790505,-8.34179 l -1.813703,-1.71096 -2.962262,0.96468 c -3.426952,1.11601 -5.162636,1.56006 -8.650805,2.21319 -3.590777,0.67233 -13.291459,0.66963 -17.197917,-0.005 -5.047681,-0.87145 -11.130826,-2.57713 -20.108333,-5.63827 -13.01474,-4.43774 -18.176016,-5.64622 -24.111039,-5.64544 -9.18349,0.001 -17.211543,3.9869 -20.119335,9.98865 -0.777125,1.60401 -0.865612,2.02633 -0.872935,4.16619 -0.0073,2.1264 0.06932,2.51304 0.715715,3.61261 0.519501,0.88372 1.070887,1.39935 1.953032,1.82639 1.152988,0.55815 1.354095,0.57602 3.244886,0.28825 2.763037,-0.42052 4.143081,-0.38708 4.642652,0.11249 0.594197,0.59419 0.515128,1.27763 -0.253495,2.19109 -1.152168,1.36927 -4.274233,2.07963 -6.751942,1.53625 z M 109.95108,236.62943 c 10.57568,-7.03875 18.91541,-17.72513 22.72306,-29.11695 1.90833,-5.70938 2.32018,-11.9809 0.94866,-14.44584 -0.36391,-0.65403 -0.99828,-1.35048 -1.40972,-1.54768 -1.85636,-0.88973 -5.76796,0.8034 -8.7535,3.78894 -3.37363,3.37363 -4.74551,6.03823 -8.51709,16.54267 -2.26344,6.30404 -2.51072,6.62805 -4.24943,5.56789 -1.26199,-0.76948 -1.54343,-1.40574 -2.2873,-5.17101 -0.72306,-3.65995 -1.79705,-7.39807 -2.9156,-10.14802 -1.88036,-4.62284 -4.65075,-7.99794 -7.389107,-9.00198 -2.855135,-1.04686 -4.641247,-0.64897 -6.806488,1.51627 -1.726759,1.72676 -2.424969,3.29475 -2.926773,6.57274 -1.043222,6.81477 2.402905,16.95971 8.835298,26.00994 3.28981,4.6287 9.49703,11.52856 10.06908,11.19266 0.16372,-0.0961 1.36922,-0.88796 2.67891,-1.75963 z m -53.213433,-4.40619 c 2.460399,-2.03316 3.596003,-4.05309 3.064528,-5.45097 -0.666746,-1.75368 -3.431689,-1.10155 -4.441935,1.04765 -0.752369,1.6006 -0.807938,5.4619 -0.0786,5.4619 0.09624,0 0.751444,-0.47636 1.456011,-1.05858 z m 103.256203,-1.97755 c 0.51345,-1.92791 0.44556,-4.29118 -0.16169,-5.62897 -0.28073,-0.61847 -0.61455,-1.12448 -0.74181,-1.12448 -0.40073,0 -1.34034,1.15863 -1.76622,2.17792 -0.79154,1.89442 -0.23774,5.39973 1.08381,6.86002 0.45484,0.50259 0.47024,0.49857 0.84755,-0.22155 0.21136,-0.4034 0.54362,-1.33172 0.73836,-2.06294 z"
       id="path1" /><path
       style="fill:#8c8982;fill-opacity:1"
       d="m -35.450337,255.94577 c -6.215547,-1.3631 -10.846001,-8.03614 -9.788828,-14.10688 0.416806,-2.39347 1.057056,-3.96672 2.49384,-6.12795 3.082935,-4.6374 8.206693,-7.92268 15.222851,-9.76068 3.447902,-0.90324 9.680558,-1.12796 13.935582,-0.50246 5.430704,0.79833 9.120785,1.90294 22.2025577,6.64624 11.4475793,4.15075 16.0768813,5.43457 22.4591763,6.22845 3.469452,0.43156 9.554762,0.1806 12.91535,-0.53264 2.434574,-0.5167 7.026564,-1.97584 7.39465,-2.34971 0.09419,-0.0957 -0.122265,-1.30504 -0.481017,-2.68749 -0.950331,-3.66208 -0.466481,-6.52364 1.448422,-8.56617 2.226584,-2.37499 6.372405,-2.31664 9.150552,0.12879 2.583899,2.27444 3.331479,5.62995 1.90423,8.54714 -0.730658,1.49341 -2.855476,3.81691 -4.538627,4.96301 -0.497381,0.33868 -0.905142,0.6956 -0.906137,0.79315 -0.0054,0.53313 3.869546,3.5608 5.903916,4.61297 8.690417,4.49464 19.197823,4.94404 30.435361,1.30171 2.220205,-0.71961 8.153688,-3.27051 8.565698,-3.68252 0.0522,-0.0522 -1.35007,-1.5087 -3.116202,-3.23662 -9.306917,-9.10551 -15.412138,-18.96339 -17.922325,-28.93854 -0.602928,-2.39595 -0.700336,-3.34228 -0.708095,-6.87916 -0.0069,-3.13786 0.101833,-4.50496 0.462889,-5.82084 2.193605,-7.99461 8.213733,-11.50503 15.30893,-8.92684 2.441216,0.88707 5.946953,3.294 7.941403,5.45232 1.95691,2.1177 3.2921,4.28343 4.62962,7.50942 0.52792,1.27331 1.04906,2.3151 1.15808,2.3151 0.10902,0 0.27889,-0.32144 0.3775,-0.71431 0.34081,-1.35789 2.72323,-6.41259 3.95055,-8.38175 2.38479,-3.82623 6.08311,-7.163 9.37262,-8.45633 1.55337,-0.61073 4.645,-0.84009 6.36163,-0.47193 2.45688,0.52691 4.25395,1.58939 6.53173,3.86176 3.58979,3.58128 5.33592,7.87987 5.59176,13.76569 0.50626,11.64717 -6.20512,23.69173 -18.84833,33.82611 -2.5837,2.071 -7.24388,5.3166 -9.56176,6.65931 -0.46503,0.26939 -0.77847,0.59826 -0.69654,0.73084 0.43884,0.71004 6.67717,3.03748 10.20234,3.80637 3.4249,0.74701 10.57509,0.68079 14.20468,-0.13155 3.53701,-0.79163 5.87314,-1.63345 9.08222,-3.27276 2.60528,-1.33087 7.08423,-4.48879 8.52116,-6.00792 l 0.78085,-0.82552 -1.35163,-1.38515 c -2.9487,-3.02183 -4.18295,-6.10334 -3.99758,-9.98055 0.0968,-2.02561 0.21792,-2.5117 0.90072,-3.6161 1.35366,-2.1895 3.74474,-3.07554 6.38583,-2.36634 2.60227,0.69878 4.5885,2.44613 5.8579,5.15338 0.62996,1.34351 0.69602,1.78049 0.68476,4.52967 -0.0121,2.96178 -0.14641,3.6425 -1.31508,6.66667 -0.14076,0.36426 0.11787,0.53898 1.37077,0.92605 2.56243,0.79161 8.60467,0.65477 12.65677,-0.28664 4.57506,-1.06291 11.16757,-3.30976 21.39606,-7.29218 17.30564,-6.73788 25.88214,-9.19986 35.16824,-10.09544 3.71598,-0.35837 9.66479,-0.0405 13.2736,0.70928 8.47511,1.76082 14.10076,5.80706 16.03654,11.53425 0.45807,1.35523 0.54638,2.12968 0.46323,4.06214 -0.0917,2.13024 -0.20345,2.57242 -1.03683,4.10105 -1.84353,3.38148 -5.83518,5.47715 -9.96288,5.23065 -3.14229,-0.18766 -5.27974,-1.51456 -4.5715,-2.83791 0.36347,-0.67916 1.10213,-0.88616 1.97624,-0.55383 3.5105,1.33469 8.21688,-2.82857 8.21763,-7.2693 2.1e-4,-1.25338 -0.15212,-1.84706 -0.72376,-2.82075 -3.478,-5.92424 -12.67955,-8.24085 -25.55412,-6.43359 -6.91313,0.97043 -13.15389,2.94482 -28.22411,8.92922 -9.37391,3.72239 -14.25363,5.41804 -19.08953,6.63341 -4.98378,1.25254 -7.46183,1.57888 -11.99901,1.58018 -4.12337,0.001 -5.95994,-0.25379 -9.59659,-1.33228 l -2.32055,-0.68818 -2.30966,2.24674 c -3.34898,3.25773 -6.12129,5.02195 -11.04091,7.02613 -5.43061,2.21235 -9.82655,3.06311 -15.74271,3.04672 -7.32426,-0.0203 -13.9078,-1.81196 -20.6744,-5.62642 l -2.31764,-1.30651 -3.09973,1.19802 c -6.043165,2.33563 -11.498772,3.73564 -17.004168,4.3636 -3.459936,0.39464 -11.281615,0.19131 -14.322203,-0.37233 -7.389708,-1.36984 -13.374691,-4.17614 -17.790505,-8.34179 l -1.813703,-1.71096 -2.962262,0.96468 c -3.426952,1.11601 -5.162636,1.56006 -8.650805,2.21319 -3.590777,0.67233 -13.291459,0.66963 -17.197917,-0.005 -5.047681,-0.87145 -11.130826,-2.57713 -20.108333,-5.63827 -13.01474,-4.43774 -18.176016,-5.64622 -24.111039,-5.64544 -9.18349,0.001 -17.211543,3.9869 -20.119335,9.98865 -0.777125,1.60401 -0.865612,2.02633 -0.872935,4.16619 -0.0073,2.1264 0.06932,2.51304 0.715715,3.61261 0.519501,0.88372 1.070887,1.39935 1.953032,1.82639 1.152988,0.55815 1.354095,0.57602 3.244886,0.28825 2.763037,-0.42052 4.143081,-0.38708 4.642652,0.11249 0.594197,0.59419 0.515128,1.27763 -0.253495,2.19109 -1.152168,1.36927 -4.274233,2.07963 -6.751942,1.53625 z M 109.95108,236.62943 c 10.57568,-7.03875 18.91541,-17.72513 22.72306,-29.11695 1.90833,-5.70938 2.32018,-11.9809 0.94866,-14.44584 -0.36391,-0.65403 -0.99828,-1.35048 -1.40972,-1.54768 -1.85636,-0.88973 -5.76796,0.8034 -8.7535,3.78894 -3.37363,3.37363 -4.74551,6.03823 -8.51709,16.54267 -2.26344,6.30404 -2.51072,6.62805 -4.24943,5.56789 -1.26199,-0.76948 -1.54343,-1.40574 -2.2873,-5.17101 -0.72306,-3.65995 -1.79705,-7.39807 -2.9156,-10.14802 -1.88036,-4.62284 -4.65075,-7.99794 -7.389107,-9.00198 -2.855135,-1.04686 -4.641247,-0.64897 -6.806488,1.51627 -1.726759,1.72676 -2.424969,3.29475 -2.926773,6.57274 -1.043222,6.81477 2.402905,16.95971 8.835298,26.00994 3.28981,4.6287 9.49703,11.52856 10.06908,11.19266 0.16372,-0.0961 1.36922,-0.88796 2.67891,-1.75963 z m -53.213433,-4.40619 c 2.460399,-2.03316 3.596003,-4.05309 3.064528,-5.45097 -0.666746,-1.75368 -3.431689,-1.10155 -4.441935,1.04765 -0.752369,1.6006 -0.807938,5.4619 -0.0786,5.4619 0.09624,0 0.751444,-0.47636 1.456011,-1.05858 z m 103.256203,-1.97755 c 0.51345,-1.92791 0.44556,-4.29118 -0.16169,-5.62897 -0.28073,-0.61847 -0.61455,-1.12448 -0.74181,-1.12448 -0.40073,0 -1.34034,1.15863 -1.76622,2.17792 -0.79154,1.89442 -0.23774,5.39973 1.08381,6.86002 0.45484,0.50259 0.47024,0.49857 0.84755,-0.22155 0.21136,-0.4034 0.54362,-1.33172 0.73836,-2.06294 z"
       id="path2" /></g></svg>
