<?xml version="1.0" encoding="UTF-8" standalone="no"?>
<!-- Created with Inkscape (http://www.inkscape.org/) -->

<svg
   width="200.02415mm"
   height="160.96217mm"
   viewBox="0 0 200.02415 160.96217"
   version="1.1"
   id="svg1"
   xml:space="preserve"
   inkscape:version="1.3.1 (9b9bdc1480, 2023-11-25, custom)"
   sodipodi:docname="map.svg"
   xmlns:inkscape="http://www.inkscape.org/namespaces/inkscape"
   xmlns:sodipodi="http://sodipodi.sourceforge.net/DTD/sodipodi-0.dtd"
   xmlns="http://www.w3.org/2000/svg"
   xmlns:svg="http://www.w3.org/2000/svg"><sodipodi:namedview
     id="namedview1"
     pagecolor="#ffffff"
     bordercolor="#000000"
     borderopacity="0.25"
     inkscape:showpageshadow="2"
     inkscape:pageopacity="0.0"
     inkscape:pagecheckerboard="0"
     inkscape:deskcolor="#d1d1d1"
     inkscape:document-units="mm"
     inkscape:zoom="0.72693603"
     inkscape:cx="375.54887"
     inkscape:cy="353.53868"
     inkscape:window-width="1850"
     inkscape:window-height="1016"
     inkscape:window-x="0"
     inkscape:window-y="0"
     inkscape:window-maximized="1"
     inkscape:current-layer="layer1" /><defs
     id="defs1" /><g
     inkscape:label="Layer 1"
     inkscape:groupmode="layer"
     id="layer1"
     transform="translate(-5.3570429,-55.233346)"><path
       style="fill:#b0855c;fill-opacity:1;stroke-width:3.64909"
       d="m 6.1677621,214.91134 c -0.6607763,-0.79619 -0.9835745,-2.21027 -0.7173372,-3.14237 0.6285184,-2.20039 35.5564681,-83.60923 36.1443001,-84.24392 0.245948,-0.26565 18.206525,-0.69996 39.912452,-0.96547 l 39.465343,-0.48274 -4.2174,-7.27536 c -8.35433,-14.41188 -9.54239,-27.266658 -3.67821,-39.798129 7.47895,-15.982117 21.80752,-24.622166 39.30974,-23.703545 14.74004,0.773644 27.24298,9.227734 33.64997,22.752996 2.6643,5.624371 3.12657,7.753503 3.40432,15.680228 0.38346,10.94229 -1.08173,15.67892 -8.69929,28.12281 -2.72139,4.44561 -5.61127,9.2092 -6.42196,10.58578 -1.42321,2.41667 -0.89924,3.84347 15.22712,41.46529 12.50039,29.1626 16.46322,39.33943 15.75559,40.46134 -0.84283,1.33622 -11.63343,1.52558 -99.43932,1.74481 -86.556057,0.21602 -98.6395281,0.0703 -99.6953179,-1.20172 z M 145.18989,208.76483 c 0,-0.45468 -1.51922,-2.81633 -3.37606,-5.24812 -5.71258,-7.48153 -12.19502,-9.94967 -32.23161,-12.27188 -9.22937,-1.06969 -19.551874,-2.58757 -22.938955,-3.37306 -18.144091,-4.20792 -23.126442,-12.64255 -14.83043,-25.10644 2.120703,-3.18609 3.857193,-6.48589 3.858907,-7.33289 0.0036,-2.17773 -2.367342,-4.01712 -10.275677,-7.96933 -7.315942,-3.65617 -10.750315,-7.05248 -11.642516,-11.51355 -0.503502,-2.51754 -0.847648,-2.70726 -4.424516,-2.43935 l -3.878576,0.29048 -10.549614,24.61993 c -5.802302,13.54096 -13.084015,30.59385 -16.181579,37.89535 l -5.631925,13.27547 h 66.05129 c 36.328181,0 66.051261,-0.37201 66.051261,-0.82665 z m 52.1363,0.13903 c 0,-1.90333 -28.31766,-66.81348 -28.97168,-66.40927 -0.41954,0.25908 -4.54282,6.55554 -9.16289,13.99171 -5.93806,9.55748 -8.92855,13.5203 -10.20303,13.5203 -1.31582,0 -4.73724,-4.95585 -12.66449,-18.34422 L 125.4625,133.31809 H 92.452389 c -32.634937,0 -33.004297,0.0219 -32.500503,1.94872 0.633808,2.42365 3.735312,4.62311 12.103283,8.58313 10.625919,5.02854 12.035451,10.59643 5.444145,21.50544 -4.861384,8.04583 -4.633243,10.34783 1.309657,13.21585 5.827771,2.81251 14.547953,4.62355 30.657859,6.36726 7.69979,0.8334 16.38367,2.2015 19.29754,3.04017 10.23564,2.94604 17.254,8.61535 21.50997,17.37544 l 2.05874,4.2375 h 22.49655 c 12.37308,0 22.49656,-0.30945 22.49656,-0.68774 z m -32.36961,-73.4142 c 8.48212,-13.6262 16.17975,-26.96648 17.10588,-29.64513 6.31699,-18.270534 -5.0388,-38.68775 -24.22528,-43.556105 -16.18453,-4.106607 -33.71758,4.986109 -39.77919,20.629666 -2.55633,6.597255 -2.86019,17.015721 -0.67235,23.053459 1.48361,4.09439 30.78077,54.34138 31.66618,54.3101 0.26566,-0.0106 7.42265,-11.16576 15.90476,-24.79199 z m -22.18041,-26.7062 c -3.73098,-1.65821 -6.7656,-4.98695 -8.6433,-9.48094 -1.95121,-4.66988 -1.85887,-8.052473 0.35286,-12.922614 7.46315,-16.434313 31.98953,-11.091579 31.92909,6.955302 -0.0409,12.214512 -12.53828,20.381822 -23.63856,15.448252 z m 14.4823,-8.33272 c 7.97927,-7.969164 -1.08637,-21.304417 -11.51969,-16.945073 -4.25319,1.777068 -6.34181,4.986437 -6.34181,9.7447 0,4.668675 2.04877,7.913623 6.15816,9.753423 4.08164,1.82739 8.2216,0.92427 11.70334,-2.55305 z"
       id="path1" /></g></svg>
