<?xml version="1.0" encoding="UTF-8" standalone="no"?>
<!-- Created with Inkscape (http://www.inkscape.org/) -->

<svg
   width="134.88527mm"
   height="135.30576mm"
   viewBox="0 0 134.88527 135.30576"
   version="1.1"
   id="svg1"
   xml:space="preserve"
   inkscape:version="1.3.1 (9b9bdc1480, 2023-11-25, custom)"
   sodipodi:docname="novia.svg"
   xmlns:inkscape="http://www.inkscape.org/namespaces/inkscape"
   xmlns:sodipodi="http://sodipodi.sourceforge.net/DTD/sodipodi-0.dtd"
   xmlns="http://www.w3.org/2000/svg"
   xmlns:svg="http://www.w3.org/2000/svg"><sodipodi:namedview
     id="namedview1"
     pagecolor="#ffffff"
     bordercolor="#000000"
     borderopacity="0.25"
     inkscape:showpageshadow="2"
     inkscape:pageopacity="0.0"
     inkscape:pagecheckerboard="0"
     inkscape:deskcolor="#d1d1d1"
     inkscape:document-units="mm"
     inkscape:zoom="0.72693603"
     inkscape:cx="220.78972"
     inkscape:cy="196.71607"
     inkscape:window-width="1850"
     inkscape:window-height="1016"
     inkscape:window-x="0"
     inkscape:window-y="0"
     inkscape:window-maximized="1"
     inkscape:current-layer="layer1" /><defs
     id="defs1" /><g
     inkscape:label="Layer 1"
     inkscape:groupmode="layer"
     id="layer1"
     transform="translate(-46.304688,-96.866945)"><path
       style="fill:#8c8982;fill-opacity:1"
       d="m 46.950503,231.62431 c -0.933194,-0.73406 -0.928144,-0.85824 0.498747,-12.25622 4.466553,-35.67887 8.178502,-56.45173 12.841178,-71.86207 4.049256,-13.38294 9.544086,-23.34999 15.51285,-28.13866 1.433874,-1.15038 1.886011,-1.73294 2.905535,-3.74363 3.122842,-6.15887 6.971431,-9.56208 12.262901,-10.84379 0.943674,-0.22858 3.025442,-0.48877 4.626163,-0.5782 l 2.910402,-0.16261 2.116661,-2.01768 c 3.86965,-3.688712 7.59403,-5.154505 13.09687,-5.154505 5.50247,0 9.22684,1.465699 13.09687,5.154185 l 2.11667,2.01737 2.83148,0.15466 c 8.25722,0.45103 13.04066,3.67386 16.96561,11.43057 1.02161,2.01895 1.46977,2.5956 2.94558,3.79013 10.1677,8.22982 17.32455,27.80101 23.14104,63.28174 2.14307,13.07279 6.36938,44.43398 6.3709,47.27506 4.7e-4,0.87931 -0.14193,1.21739 -0.69655,1.65365 -0.89564,0.70451 -1.4884,0.69262 -2.34047,-0.0469 -0.6712,-0.58258 -0.71931,-0.86124 -2.24942,-13.03073 -6.15393,-48.9443 -11.58649,-73.21666 -19.47063,-86.99365 -1.05081,-1.83621 -3.72512,-5.7428 -3.93131,-5.7428 -0.0351,0 0.27353,1.45851 0.68592,3.24114 2.20053,9.51216 4.43557,24.74291 6.66841,45.44219 0.9266,8.58986 0.91009,9.22248 -0.25452,9.75311 -0.94483,0.4305 -1.31205,0.37847 -2.07697,-0.29426 -0.66296,-0.58306 -0.70138,-0.81852 -1.86746,-11.44323 -2.9084,-26.49979 -5.43155,-41.39452 -8.53822,-50.40312 -0.60681,-1.7596 -1.27767,-2.27161 -4.33362,-3.30749 -1.8655,-0.63236 -2.76001,-0.76724 -5.76513,-0.86932 l -3.55701,-0.12081 1.53263,1.68579 c 2.05382,2.25906 4.4391,5.91512 5.46166,8.37142 1.56774,3.76589 2.13931,6.61326 2.29608,11.43832 l 0.14184,4.36563 1.08987,-0.0864 c 0.80419,-0.0637 1.46893,0.11204 2.53599,0.67055 1.18687,0.62122 1.58218,1.01617 2.20504,2.20304 l 0.75892,1.44612 -0.0902,4.49792 c -0.0885,4.41213 -0.10518,4.52498 -0.87447,5.91718 -0.86771,1.57032 -1.99393,2.46473 -3.9012,3.09823 -0.69519,0.2309 -1.26398,0.51546 -1.26398,0.63236 0,0.21212 0.85178,0.99675 3.38137,3.11477 3.1323,2.62267 3.84663,7.27228 1.64952,10.73676 -0.40977,0.64614 -1.5915,1.85017 -2.62607,2.67564 -2.17327,1.73401 -2.63987,2.35307 -2.83489,3.76113 -0.29848,2.15511 -1.35443,3.00142 -2.92234,2.34217 -0.89568,-0.37661 -1.14551,-0.83228 -1.14551,-2.08936 0,-2.51213 1.44878,-4.82387 4.48949,-7.16365 1.65209,-1.27125 2.38968,-2.47797 2.38968,-3.90959 0,-1.69116 -0.50719,-2.52723 -2.54152,-4.18954 l -1.95653,-1.59874 -0.28265,0.74465 c -1.7325,4.56443 -2.66771,6.42245 -4.70301,9.34361 -1.42568,2.0462 -4.63412,5.42146 -6.58205,6.92427 -1.33173,1.02743 -1.39653,1.13458 -1.39215,2.30218 0.006,1.66263 0.65851,4.62409 1.31896,5.9884 0.72555,1.49879 2.37518,3.08834 4.23235,4.0782 0.83724,0.44625 3.63933,1.53551 6.22687,2.42059 12.42798,4.25106 17.38191,7.70873 20.63423,14.40199 1.97904,4.07282 3.03716,9.6016 3.03716,15.86934 0,3.2224 -0.0111,3.28327 -0.69714,3.82291 -0.38342,0.3016 -0.85407,0.54837 -1.04588,0.54837 -0.61271,0 -1.66172,-0.58654 -1.8386,-1.02803 -0.0941,-0.23495 -0.27244,-2.39171 -0.39624,-4.7928 -0.36781,-7.13388 -1.5351,-11.57775 -3.94089,-15.00301 -3.00689,-4.28107 -7.17198,-6.75499 -16.81907,-9.98995 -7.72243,-2.58956 -11.04624,-4.78204 -12.83957,-8.46932 -0.86828,-1.78526 -1.58094,-4.31134 -1.58094,-5.60374 0,-0.47016 -0.0994,-0.91629 -0.22096,-0.9914 -0.12153,-0.0751 -1.04426,0.14731 -2.05052,0.49425 -5.55715,1.91605 -11.72362,1.94858 -16.77851,0.0885 -2.34622,-0.86334 -2.47807,-0.8258 -2.67677,0.76214 -0.25879,2.06819 -1.17379,4.8268 -2.06708,6.23202 -2.024601,3.18487 -5.135063,5.07626 -12.309344,7.48499 -2.466255,0.82803 -5.402237,1.9092 -6.524401,2.40259 -2.345898,1.03143 -3.196022,1.11084 -3.938949,0.36791 -0.664937,-0.66495 -0.700267,-2.14439 -0.0649,-2.71936 0.706717,-0.63957 4.476526,-2.18198 9.325299,-3.81541 8.413822,-2.83441 10.45534,-4.5198 11.511084,-9.50307 0.212247,-1.00185 0.387977,-2.3726 0.390507,-3.04613 0.004,-1.1676 -0.0604,-1.27475 -1.392141,-2.30218 -1.947921,-1.50281 -5.156343,-4.87807 -6.582014,-6.92427 -2.035288,-2.92116 -2.970492,-4.77918 -4.702983,-9.34361 l -0.282647,-0.74465 -1.956521,1.59874 c -2.028898,1.65788 -2.541505,2.49932 -2.541505,4.17188 0,1.50987 0.643917,2.58392 2.324318,3.87697 3.150752,2.42446 4.569553,4.70313 4.546393,7.30172 -0.0151,1.69597 -1.322181,2.62917 -2.807675,2.00457 -0.861044,-0.36205 -1.152631,-0.83873 -1.152631,-1.8843 0,-1.34266 -0.752717,-2.42279 -2.991495,-4.29272 -2.965102,-2.47659 -3.755349,-3.96102 -3.755349,-7.05422 0,-2.7261 0.860117,-4.63277 2.836325,-6.28746 2.529575,-2.11802 3.381352,-2.90265 3.381352,-3.11477 0,-0.1169 -0.568787,-0.40146 -1.263974,-0.63236 -1.907928,-0.63372 -3.033812,-1.52823 -3.899619,-3.09823 -0.761834,-1.38148 -0.785264,-1.5343 -0.879874,-5.74049 -0.11091,-4.93087 0.13991,-6.03921 1.712201,-7.56621 0.986904,-0.95847 2.805752,-1.60265 4.021366,-1.42424 l 0.768837,0.11285 0.148227,-4.3808 c 0.14859,-4.3914 0.618597,-7.17039 1.647721,-9.74243 0.542577,-1.35604 1.573871,-1.87259 2.680105,-1.34239 1.167274,0.55947 1.330324,1.45771 0.673117,3.70814 -0.887924,3.04048 -1.106064,5.02598 -1.108214,10.08696 l -0.002,4.70982 0.875444,-0.66774 c 1.525164,-1.1633 5.67957,-2.96105 11.91985,-5.15811 9.80678,-3.45272 13.08881,-5.09085 16.335,-8.15314 2.51441,-2.37197 3.8106,-4.98307 4.23818,-8.53752 0.34867,-2.89857 0.67672,-3.43959 2.08563,-3.43959 1.34709,0 1.78905,0.60047 2.11058,2.86753 0.49091,3.4614 2.00259,5.54212 7.13373,9.81905 1.56352,1.30323 3.36132,3.05978 3.99513,3.90344 0.6338,0.84367 1.26299,1.653 1.3982,1.79852 0.1519,0.16349 0.18101,-0.55916 0.0762,-1.89134 -0.82849,-10.52913 -8.3993,-19.52613 -18.81487,-22.35924 -3.05098,-0.82988 -9.38,-0.83053 -12.43542,-10e-4 -4.48241,1.21657 -9.275518,4.10038 -12.35664,7.43447 -1.682381,1.8205 -2.590885,2.0704 -3.604482,0.99148 -0.990724,-1.05459 -0.763394,-2 0.931207,-3.87261 l 1.506491,-1.66473 -3.556999,0.11897 c -2.978405,0.0996 -3.901299,0.23644 -5.67365,0.84112 -3.627989,1.23776 -3.840756,1.45576 -4.96983,5.09207 -3.196692,10.29529 -5.58888,25.51828 -8.767402,55.79233 -0.504187,4.80219 -1.106694,10.81484 -1.338901,13.36146 -0.23221,2.54661 -0.480187,4.90113 -0.551067,5.23225 -0.512757,2.39533 -3.819559,2.03365 -3.819559,-0.41776 0,-1.29571 1.875101,-19.8842 3.055602,-30.29129 2.088408,-18.4109 4.172316,-31.78447 6.172257,-39.6107 0.278897,-1.0914 0.470427,-2.02339 0.425617,-2.07108 -0.13867,-0.14759 -2.245998,2.8231 -3.508842,4.94639 -8.143532,13.69223 -13.646212,37.94584 -19.907526,87.74448 -1.530111,12.16949 -1.578211,12.44815 -2.249408,13.03073 -0.852064,0.73956 -1.444821,0.75145 -2.340455,0.0469 z m 71.011107,-47.71638 c 10.44686,-2.21478 18.64714,-11.93446 20.47937,-24.2739 1.14423,-7.70596 -0.29718,-14.62706 -4.09278,-19.65197 -0.55652,-0.73677 -2.15525,-2.28007 -3.55272,-3.42956 -1.39747,-1.14949 -3.40724,-3.01095 -4.46615,-4.13658 l -1.92529,-2.04659 -0.59042,1.11296 c -0.90736,1.71038 -2.89058,3.95521 -4.90019,5.54658 -1.84696,1.46256 -6.66635,4.07869 -9.55725,5.188 -1.62597,0.62392 -2.35111,1.05581 -1.7727,1.05581 0.59351,0 1.37583,1.05313 1.37583,1.85209 0,0.99635 -0.83165,1.85477 -1.78594,1.84344 -0.40018,-0.005 -1.38245,-0.23899 -2.18281,-0.52053 -2.00886,-0.70664 -5.230387,-0.7038 -7.294705,0.006 -2.898335,0.99718 -5.848067,2.59484 -7.097341,3.84412 -1.670711,1.67072 -2.143808,3.32371 -1.908668,6.66882 0.940004,13.37279 9.467886,24.4844 20.666334,26.92763 2.11159,0.46069 6.4633,0.4674 8.60543,0.0132 z m -7.9277,-7.02854 c -1.76498,-0.64946 -3.01565,-1.46157 -4.31575,-2.80239 -1.18281,-1.21987 -1.33402,-2.4194 -0.41313,-3.27734 0.91196,-0.84962 1.91672,-0.6887 3.22406,0.51637 1.5653,1.44285 3.30864,2.17207 5.19272,2.17207 1.88407,0 3.62741,-0.72922 5.19271,-2.17207 0.7741,-0.71353 1.38854,-1.05585 1.89523,-1.05585 1.0562,0 1.90789,0.87772 1.90789,1.96619 0,0.74413 -0.25457,1.12292 -1.57835,2.34851 -2.12704,1.96926 -3.87148,2.63987 -7.1529,2.7498 -2.00859,0.0673 -2.80261,-0.0222 -3.95248,-0.44529 z M 99.536273,158.45523 c -0.598764,-0.21236 -1.581021,-0.80755 -2.182795,-1.32265 -0.886867,-0.75912 -1.094144,-1.10808 -1.094144,-1.84197 0,-1.10973 0.780274,-1.9656 1.785928,-1.95894 0.400177,0.003 1.251524,0.35983 1.891891,0.79375 1.709257,1.15821 3.292387,1.15202 4.994997,-0.0195 1.43333,-0.98625 2.48184,-1.01298 3.21421,-0.0819 1.13512,1.44308 0.43948,2.75587 -2.1446,4.04715 -1.37654,0.68786 -1.91161,0.80877 -3.50086,0.79107 -1.03178,-0.0115 -2.36587,-0.19463 -2.964627,-0.40698 z m 21.905587,-0.38409 c -2.58408,-1.29128 -3.27973,-2.60407 -2.1446,-4.04715 0.73237,-0.93106 1.78087,-0.90433 3.21421,0.0819 1.7026,1.17153 3.28574,1.17772 4.995,0.0195 0.64036,-0.43392 1.49172,-0.79111 1.8919,-0.79375 1.00565,-0.007 1.78594,0.84921 1.78594,1.95894 0,0.73323 -0.20714,1.08273 -1.08919,1.83772 -1.40415,1.20191 -3.06318,1.75477 -5.26569,1.75477 -1.43796,0 -2.06203,-0.14958 -3.38757,-0.81196 z m -2.42839,-11.62346 c -0.66787,-0.66787 -0.68291,-1.96291 -0.0304,-2.61545 0.93466,-0.93467 3.44167,-1.67541 6.14936,-1.81694 5.70777,-0.29834 9.96072,1.81388 8.25975,4.1022 -0.69609,0.93645 -1.49653,1.0155 -3.48841,0.34448 -2.13695,-0.71988 -5.42693,-0.72619 -7.45074,-0.0143 -1.87088,0.65811 -2.78148,0.65811 -3.43959,0 z m -34.39574,6.63349 c 0,-5.03341 -0.12854,-5.57515 -1.322904,-5.57515 -1.148004,0 -1.322911,0.60997 -1.322911,4.61342 0,3.46268 0.0478,3.84258 0.565704,4.50107 0.50045,0.63622 1.295474,1.13794 1.881681,1.18749 0.10914,0.009 0.19843,-2.11785 0.19843,-4.72683 z m 60.12647,3.6604 c 0.72288,-0.77219 0.7276,-0.80156 0.7276,-4.52254 0,-3.11375 -0.0738,-3.82689 -0.43788,-4.22916 -0.5374,-0.59382 -1.23975,-0.6205 -1.79218,-0.0681 -0.34717,0.34717 -0.41577,1.20141 -0.41577,5.17721 v 4.76143 l 0.59531,-0.17082 c 0.32743,-0.094 0.92274,-0.52057 1.32292,-0.94804 z M 91.232281,114.04313 c 2.901275,0.003 5.025363,0.12583 5.688507,0.32973 1.022174,0.31428 1.148704,0.28046 3.704152,-0.99009 2.9369,-1.46019 6.15579,-2.46986 9.24303,-2.89925 5.71501,-0.79489 11.51642,0.19739 16.95071,2.89925 2.55546,1.27055 2.68198,1.30437 3.70417,0.99009 1.66794,-0.51283 9.94229,-0.44214 11.83453,0.1011 l 1.51578,0.43517 -0.75955,-1.10397 c -2.66668,-3.87589 -6.91026,-5.72205 -13.15267,-5.72205 h -2.83318 l -1.96616,-2.10557 c -1.08138,-1.15806 -2.5584,-2.4856 -3.28225,-2.9501 -3.23356,-2.07497 -7.58176,-2.82821 -11.40988,-1.97653 -3.25849,0.72494 -5.01636,1.75488 -7.78452,4.56093 l -2.4379,2.47127 h -2.764335 c -6.297114,0 -10.45696,1.80402 -13.134895,5.69629 l -0.777274,1.12973 1.515781,-0.43517 c 1.151154,-0.33049 2.629545,-0.43412 6.145954,-0.43083 z M 64.412904,231.62431 c -0.686037,-0.53964 -0.697137,-0.60051 -0.697137,-3.82291 0,-6.25371 1.125854,-11.98623 3.168652,-16.13393 1.184664,-2.40533 3.164422,-5.04247 4.108376,-5.47257 1.326664,-0.60447 3.050965,0.88553 2.614875,2.25954 -0.0982,0.30945 -0.622244,1.09944 -1.164521,1.75554 -3.007725,3.63906 -4.320886,8.11028 -4.773093,16.25206 -0.24263,4.36841 -0.27372,4.53998 -0.926807,5.11533 -0.839574,0.73963 -1.434501,0.75162 -2.330345,0.0469 z m 16.380077,-0.0189 -0.721137,-0.56724 0.10053,-3.73224 c 0.087,-3.22868 0.19654,-3.99915 0.812154,-5.71063 2.531038,-7.03652 9.572016,-11.74321 16.898487,-11.29615 3.736015,0.22797 8.629145,2.12929 13.483975,5.23948 1.10594,0.70851 2.16561,1.2882 2.35482,1.2882 0.1892,0 1.24887,-0.57969 2.35482,-1.2882 8.72237,-5.58788 15.5334,-6.66312 21.90191,-3.4576 3.89019,1.95808 7.041,5.512 8.5058,9.59398 0.60902,1.6972 0.6827,2.30255 0.69429,5.70428 l 0.013,3.80559 -0.70458,0.52835 c -0.48116,0.36083 -0.91574,0.47536 -1.37056,0.3612 -1.24407,-0.31224 -1.40409,-0.72561 -1.5961,-4.12309 -0.20209,-3.57586 -0.78856,-5.62236 -2.27507,-7.93888 -2.22488,-3.46718 -6.6139,-5.83147 -10.82543,-5.83147 -1.75969,0 -4.85977,0.83813 -7.40718,2.00259 -1.18092,0.53981 -2.14712,1.01652 -2.14712,1.05936 0,0.0428 0.38695,0.70091 0.85989,1.46238 0.77585,1.24917 0.85913,1.5806 0.85208,3.39102 -0.0116,2.98917 -0.89071,4.30457 -5.11981,7.66114 -2.75199,2.18419 -3.33349,2.50714 -4.14682,2.30301 -0.76771,-0.19268 -5.48707,-3.92426 -6.66175,-5.26741 -1.45962,-1.66896 -1.7745,-2.49839 -1.78307,-4.69674 -0.007,-1.81042 0.0762,-2.14185 0.85208,-3.39102 0.47295,-0.76147 0.8599,-1.41954 0.8599,-1.46238 0,-0.25157 -4.61157,-2.122 -6.29049,-2.55139 -4.662033,-1.19236 -8.952129,-0.0512 -12.345621,3.284 -2.889282,2.83961 -4.108836,6.27617 -4.115956,11.59822 -0.002,1.30642 -0.0928,1.5736 -0.699147,2.05052 -0.884984,0.69614 -1.430481,0.69173 -2.333865,-0.0189 z m 34.962279,-5.55827 c 2.97229,-2.42875 3.70154,-4.06705 2.41834,-5.43295 -0.77192,-0.82167 -1.53344,-0.77111 -2.732,0.18139 -0.55795,0.44339 -1.31704,0.79375 -1.71979,0.79375 -0.40276,0 -1.16185,-0.35036 -1.7198,-0.79375 -1.18561,-0.94221 -1.86583,-0.99735 -2.69492,-0.21847 -0.71411,0.67087 -0.79353,1.74649 -0.21201,2.87104 0.31237,0.60404 4.18669,4.16964 4.58138,4.21631 0.0478,0.006 0.98328,-0.72214 2.0788,-1.61732 z m 43.21702,-26.67608 c -0.64183,-0.64184 -0.70592,-0.93641 -1.06404,-4.89054 -0.26669,-2.94467 -0.25191,-3.21063 0.21323,-3.83646 0.33433,-0.44983 0.80212,-0.69859 1.41306,-0.75142 1.70562,-0.1475 2.12908,0.91933 2.49945,6.29683 0.16872,2.4497 0.14985,2.58476 -0.43761,3.13206 -0.766,0.71364 -1.93785,0.73576 -2.62409,0.0495 z"
       id="path1" /></g></svg>
