<?xml version="1.0" encoding="UTF-8" standalone="no"?>
<!-- Created with Inkscape (http://www.inkscape.org/) -->

<svg
   width="134.88527mm"
   height="135.30576mm"
   viewBox="0 0 134.88527 135.30576"
   version="1.1"
   id="svg1"
   xml:space="preserve"
   inkscape:version="1.3.1 (9b9bdc1480, 2023-11-25, custom)"
   sodipodi:docname="novio.svg"
   xmlns:inkscape="http://www.inkscape.org/namespaces/inkscape"
   xmlns:sodipodi="http://sodipodi.sourceforge.net/DTD/sodipodi-0.dtd"
   xmlns="http://www.w3.org/2000/svg"
   xmlns:svg="http://www.w3.org/2000/svg"><sodipodi:namedview
     id="namedview1"
     pagecolor="#ffffff"
     bordercolor="#000000"
     borderopacity="0.25"
     inkscape:showpageshadow="2"
     inkscape:pageopacity="0.0"
     inkscape:pagecheckerboard="0"
     inkscape:deskcolor="#d1d1d1"
     inkscape:document-units="mm"
     inkscape:zoom="0.72693603"
     inkscape:cx="221.47754"
     inkscape:cy="195.34044"
     inkscape:window-width="1850"
     inkscape:window-height="1016"
     inkscape:window-x="0"
     inkscape:window-y="0"
     inkscape:window-maximized="1"
     inkscape:current-layer="layer1" /><defs
     id="defs1" /><g
     inkscape:label="Layer 1"
     inkscape:groupmode="layer"
     id="layer1"
     transform="translate(-46.304688,-96.866945)"><path
       style="fill:#B0855C;fill-opacity:1"
       d="m 50.852493,231.97869 -0.73521,-0.57831 0.15846,-3.98575 c 0.36239,-9.11549 3.76398,-24.51739 6.72372,-30.44408 1.64994,-3.30389 2.27952,-3.56125 17.8002,-7.27615 4.87495,-1.16683 9.76238,-2.41987 10.86096,-2.78454 3.8624,-1.28208 7.83362,-3.58768 10.61518,-6.16292 1.40904,-1.30452 1.54261,-1.52443 1.54261,-2.53983 0,-1.01984 -0.15973,-1.27881 -1.93377,-3.13528 -4.71597,-4.93511 -7.95689,-10.87132 -9.71193,-17.78878 -0.5806,-2.28843 -0.84284,-2.92818 -1.22708,-2.99352 -2.54567,-0.43291 -4.87847,-2.04161 -6.00108,-4.13834 -0.53055,-0.99092 -0.57906,-1.51136 -0.65454,-7.02335 -0.08,-5.84182 -0.0697,-5.97538 0.5497,-7.14375 0.89048,-1.67959 2.68608,-2.75922 4.58902,-2.75922 h 1.4251 v -7.95751 c 0,-6.28349 0.0853,-8.28924 0.40523,-9.53444 0.86108,-3.35083 3.179,-7.19103 5.79711,-9.60432 1.3948,-1.28569 2.38837,-1.43379 3.27653,-0.48838 0.93866,0.99915 0.74021,1.82864 -0.86896,3.63207 -1.41851,1.58975 -3.05366,3.86106 -3.05366,4.24169 0,0.10633 0.56554,0.0165 1.25677,-0.19963 1.69952,-0.5314 6.21741,-0.51536 9.196587,0.0327 1.30841,0.24068 3.92675,0.84137 5.81852,1.33485 8.54676,2.22951 13.78393,2.48091 18.09338,0.86854 3.11274,-1.16463 5.49115,-4.5551 5.65097,-8.05558 l 0.0682,-1.49264 -1.45521,-0.88438 c -2.02263,-1.22921 -4.93125,-2.40458 -7.91798,-3.19963 -2.19733,-0.58493 -3.11167,-0.67777 -6.89868,-0.70054 -4.86759,-0.0293 -6.7068,0.2781 -11.05054,1.84674 -2.45223,0.88556 -2.96504,0.9073 -3.832287,0.16246 -0.61588,-0.52895 -0.60066,-2.03009 0.0269,-2.65769 0.26948,-0.26948 1.549407,-0.876877 2.844277,-1.349794 11.25049,-4.108881 24.12737,-2.0049 32.94084,5.382274 3.85463,3.23083 6.37828,6.95597 7.38859,10.90623 0.46164,1.805 0.52176,2.94322 0.52176,9.87854 v 7.83848 h 1.42509 c 1.90295,0 3.69855,1.07963 4.58902,2.75922 0.61944,1.16837 0.62971,1.30193 0.54971,7.14375 -0.0921,6.72622 -0.20607,7.17737 -2.28792,9.05819 -1.31373,1.18688 -1.78591,1.44045 -3.49835,1.8787 l -1.36695,0.34982 -0.73395,2.88946 c -1.18449,4.66321 -2.87951,8.53552 -5.43414,12.41446 -1.3588,2.06318 -4.53057,5.88683 -5.64936,6.81043 -0.40931,0.3379 -0.55773,0.76302 -0.55773,1.59744 0,1.0094 0.14105,1.27349 1.25677,2.35291 1.91102,1.84885 4.28678,3.47696 7.00298,4.79914 2.96154,1.4416 5.36887,2.19684 11.97097,3.75562 5.44273,1.28504 6.05122,1.59357 6.05122,3.06828 0,1.00584 -0.8553,1.82586 -1.90344,1.82493 -0.56709,-5.1e-4 -9.99183,-2.17221 -12.10929,-2.79029 -0.54247,-0.15835 -0.52133,-0.001 0.57729,4.28984 2.23623,8.73444 2.42435,12.72633 0.791,16.78501 -0.13899,0.34538 0.075,0.45368 1.14752,0.5807 0.7251,0.0859 1.77383,0.3885 2.33051,0.6725 1.00609,0.51327 1.01833,0.51318 2.04691,-0.0145 3.32367,-1.70515 7.58837,-0.30931 9.34885,3.05987 0.58783,1.12498 0.71204,1.70797 0.71302,3.34667 0.002,3.52223 -1.17028,5.31186 -6.04556,9.22833 -4.00477,3.21716 -4.37768,3.47167 -5.08675,3.47167 -0.64818,0 -6.11226,-4.14694 -8.20733,-6.2289 -0.74806,-0.74339 -1.61235,-1.84605 -1.92065,-2.45036 l -0.56054,-1.09876 -4.69393,4.74341 c -4.86735,4.91867 -5.58958,5.42349 -6.81832,4.76589 -0.74197,-0.39709 -1.19106,-1.50255 -0.91252,-2.2462 0.10873,-0.29028 2.03536,-2.37326 4.28141,-4.62883 7.46678,-7.49844 11.57552,-14.1617 11.58359,-18.78542 0.005,-2.6139 -1.60287,-10.20145 -3.27906,-15.47812 l -0.67238,-2.11667 -1.76055,-0.9065 c -0.9683,-0.49857 -2.45986,-1.42131 -3.31458,-2.05052 -0.85473,-0.62921 -1.59637,-1.14402 -1.6481,-1.14402 -0.0517,0 -0.16401,2.47055 -0.24952,5.4901 -0.0855,3.01956 -0.3335,6.68073 -0.5511,8.13594 -1.65036,11.03686 -5.28369,20.79867 -10.78329,28.97187 -3.65144,5.42657 -4.70598,6.01061 -6.75377,3.74048 -1.34139,-1.48703 -4.81809,-6.93053 -6.36019,-9.95819 -4.93164,-9.68247 -7.344497,-19.40013 -7.669877,-30.8901 -0.0855,-3.01955 -0.19779,-5.4901 -0.24951,-5.4901 -0.0517,0 -0.79337,0.51481 -1.6481,1.14402 -0.85472,0.62921 -2.34629,1.55195 -3.31458,2.05052 l -1.76055,0.9065 -0.65515,2.06496 c -1.00606,3.17099 -2.44372,9.06571 -2.88808,11.84178 -0.33228,2.07586 -0.51497,2.59791 -1.0823,3.09274 -0.84795,0.73959 -1.44143,0.75151 -2.33714,0.0469 -0.57071,-0.44892 -0.69714,-0.76678 -0.69714,-1.75269 0,-1.43447 1.00723,-6.49631 2.0873,-10.48977 0.77118,-2.85137 0.77243,-2.86793 0.20421,-2.69965 -0.31444,0.0931 -4.5129,1.10827 -9.3299,2.25589 -13.65509,3.25321 -14.88187,3.66115 -15.67052,5.21093 -2.70758,5.32065 -6.39525,22.44078 -6.39525,29.69013 0,2.48076 -0.33078,3.5582 -1.21625,3.96164 -0.93065,0.42404 -1.25679,0.38084 -2.09343,-0.27726 z m 100.501077,-6.42807 c 2.92057,-2.32359 3.88334,-3.56406 4.07315,-5.24805 0.2371,-2.10354 -1.11594,-3.62056 -3.2292,-3.62056 -0.73486,0 -1.2005,0.23542 -2.09325,1.05833 -0.76471,0.70489 -1.39347,1.05833 -1.88273,1.05833 -0.48925,0 -1.11801,-0.35344 -1.88273,-1.05833 -0.89275,-0.82291 -1.35838,-1.05833 -2.09324,-1.05833 -3.0902,0 -4.28943,3.36401 -2.16213,6.06507 1.1598,1.47261 6.0298,5.3508 6.38544,5.085 0.15501,-0.11586 1.45312,-1.14252 2.88469,-2.28146 z m -35.57277,-0.77464 c 0.88694,-1.36915 2.10475,-3.40174 2.70624,-4.51687 l 1.09363,-2.02752 -1.12189,-4.5451 c -0.61703,-2.49981 -1.65851,-6.21198 -2.31439,-8.24927 -1.17771,-3.65823 -1.18674,-3.71402 -0.72823,-4.49792 2.0102,-3.43674 2.32738,-5.34216 1.25526,-7.54063 -0.55935,-1.14699 -2.29253,-3.175 -2.71342,-3.175 -0.42089,0 -2.15406,2.02801 -2.71341,3.175 -1.07212,2.19847 -0.75494,4.10389 1.25525,7.54063 0.45884,0.78446 0.44987,0.83847 -0.76658,4.61422 -0.67697,2.10126 -1.71752,5.81514 -2.31233,8.25308 l -1.08149,4.43261 1.09158,2.02371 c 1.38833,2.57387 4.25133,7.00242 4.52698,7.00242 0.1156,0 0.93586,-1.12021 1.8228,-2.48936 z m -9.50522,-14.64241 c 0.18661,-0.83675 0.79526,-2.94688 1.35256,-4.6892 l 1.01327,-3.16784 -0.78548,-1.59554 c -2.3856,-4.84584 -0.91022,-10.24126 3.76059,-13.75236 2.04383,-1.53638 2.63483,-1.54087 4.63037,-0.0352 4.70733,3.55173 6.19752,8.94136 3.81239,13.78845 l -0.78469,1.59466 1.01327,3.16784 c 0.5573,1.74232 1.16684,3.85643 1.35454,4.69804 0.18769,0.8416 0.42863,1.43691 0.5354,1.32291 0.38815,-0.41442 1.8074,-5.31721 2.47305,-8.54313 1.13409,-5.49609 1.47799,-9.32226 1.47799,-16.44376 v -6.53918 l -2.24002,1.04971 c -3.60854,1.69102 -5.77517,2.1629 -9.93082,2.1629 -4.15564,0 -6.32227,-0.47188 -9.93081,-2.1629 l -2.24002,-1.04971 v 6.53918 c 0,6.97312 0.33482,10.77252 1.42591,16.18066 0.68762,3.40829 2.26736,8.99583 2.54335,8.99583 0.0989,0 0.33254,-0.68461 0.51915,-1.52135 z m 13.56217,-31.8203 c 9.26202,-3.09756 16.67394,-13.02083 18.74135,-25.09141 0.75716,-4.42069 0.75263,-15.95676 -0.007,-18.92859 -0.81258,-3.17715 -2.17724,-5.49291 -4.94313,-8.38824 -2.79479,-2.92558 -2.99811,-3.40537 -3.0003,-7.08011 l -0.001,-2.47481 -0.93581,0.82165 c -2.46113,2.16091 -6.13049,3.2425 -11.10273,3.27267 -4.17329,0.0253 -6.1437,-0.2702 -12.87114,-1.93044 -2.85903,-0.70557 -5.924897,-1.36507 -6.813027,-1.46555 l -1.6148,-0.1827 -0.001,2.21699 c -0.002,3.39416 -0.23843,3.93118 -3.0003,6.8223 -2.4913,2.60789 -3.82803,4.73522 -4.837,7.69781 -0.44377,1.30302 -0.4956,2.34068 -0.4956,9.92188 0,9.24227 0.12273,10.3189 1.74159,15.27788 3.4803,10.66101 11.509447,18.73555 20.188957,20.3031 2.48636,0.44905 6.23142,0.11755 8.95233,-0.79243 z m -7.33495,-8.10714 c -3.03011,-0.44299 -5.59128,-1.65541 -7.78253,-3.68413 -1.36112,-1.26015 -1.61019,-1.62957 -1.61019,-2.38828 0,-1.12084 0.78646,-1.95588 1.84209,-1.95588 0.57519,0 1.21438,0.38425 2.40204,1.44398 2.0954,1.86968 3.94368,2.59636 6.60379,2.59636 2.66012,0 4.5084,-0.72668 6.60379,-2.59636 1.18766,-1.05973 1.82686,-1.44398 2.40205,-1.44398 1.05562,0 1.84208,0.83504 1.84208,1.95588 0,0.75871 -0.24907,1.12813 -1.61018,2.38828 -1.77516,1.64349 -3.35407,2.54297 -5.54487,3.15881 -1.63506,0.45963 -3.96865,0.69775 -5.14807,0.52532 z m -11.37709,-21.68444 c -2.034917,-0.50706 -4.057017,-1.78878 -4.505757,-2.85602 -0.42335,-1.00687 -0.0633,-2.09561 0.8272,-2.50136 0.94725,-0.43159 1.16138,-0.38917 2.48793,0.49292 2.028777,1.34903 3.601347,1.30977 5.564967,-0.13894 1.12321,-0.82868 1.95668,-0.83036 2.78144,-0.006 1.28943,1.28943 0.45307,2.99452 -2.0747,4.22968 -1.34926,0.6593 -3.95736,1.05932 -5.08108,0.77932 z m 22.07963,-0.18227 c -2.32509,-0.65738 -4.22025,-2.24684 -4.22025,-3.53949 0,-0.81484 1.11272,-1.93667 1.92094,-1.93667 0.34215,0 1.02161,0.29476 1.50992,0.65503 1.96362,1.44871 3.5362,1.48797 5.56497,0.13894 0.65484,-0.43544 1.33385,-0.79221 1.5089,-0.79284 0.7216,-0.003 1.65546,0.64602 1.88716,1.31068 0.48344,1.38678 -0.6997,2.82806 -3.22533,3.92908 -1.14653,0.49981 -3.59821,0.61643 -4.94631,0.23527 z M 94.912393,138.28967 c -1.57194,-0.79534 -1.26458,-2.80423 0.56657,-3.70302 4.619077,-2.26722 13.716537,-0.99786 13.716537,1.91386 0,1.78892 -1.4108,2.41474 -3.49193,1.54898 -2.01526,-0.83836 -6.344847,-0.83918 -8.357977,-0.002 -1.62982,0.67812 -1.58048,0.67321 -2.4332,0.24176 z m 24.949887,0.0738 c -0.68576,-0.2763 -1.14178,-1.04274 -1.14178,-1.91902 0,-2.85859 9.15215,-4.09821 13.71654,-1.85783 1.87807,0.92183 2.13632,2.94146 0.47777,3.73638 -0.65783,0.31529 -0.9282,0.28524 -2.37509,-0.26397 -2.25942,-0.85763 -6.26045,-0.86144 -8.32328,-0.008 -1.5509,0.6417 -1.54026,0.64028 -2.35416,0.31236 z m -35.008447,5.82268 c 0,-5.73264 -0.0307,-6.1161 -0.52917,-6.61459 -0.63704,-0.63704 -1.14348,-0.6708 -1.70089,-0.11339 -0.3486,0.3486 -0.41515,1.21424 -0.41188,5.35781 0.003,3.42127 0.10566,5.14314 0.33459,5.59556 0.26899,0.53161 1.85035,1.86002 2.21418,1.86002 0.0512,0 0.0932,-2.73843 0.0932,-6.08541 z m 60.193337,4.7625 c 0.48363,-0.53377 0.53552,-1.02177 0.61068,-5.74327 0.0728,-4.57575 0.0307,-5.21672 -0.37174,-5.66146 -0.58046,-0.6414 -1.03312,-0.63401 -1.69477,0.0276 -0.49853,0.49853 -0.52917,0.88195 -0.52917,6.62138 v 6.09221 l 0.72823,-0.37658 c 0.40052,-0.20712 0.96607,-0.63908 1.25677,-0.95992 z m -52.851157,-26.57618 1.12448,-1.00206 v -2.1997 -2.19971 l -0.82621,0.23696 c -0.98525,0.28256 -1.95264,0.87213 -2.9441,1.79423 -0.71504,0.66503 -0.7276,0.73105 -0.7276,3.82381 v 3.14711 l 1.12447,-1.29929 c 0.61847,-0.71461 1.6305,-1.75022 2.24896,-2.30135 z m 46.618197,-5.4384 c -0.38662,-1.79353 -1.41978,-3.87651 -2.93469,-5.91669 l -1.15173,-1.55107 -0.0713,5.88966 -0.0713,5.88966 2.12183,2.1133 c 1.16701,1.16232 2.14806,2.24605 2.18011,2.40828 0.0321,0.16224 0.0994,-1.43143 0.14954,-3.54148 0.0553,-2.32285 -0.0325,-4.41058 -0.22244,-5.29166 z m -39.302457,114.8697 c -0.56753,-0.41428 -2.64378,-2.41381 -4.61387,-4.4434 -4.25701,-4.38557 -7.92739,-9.11849 -7.92739,-10.22229 0,-0.94158 1.07008,-2.04357 1.98438,-2.04357 0.81861,0 1.34618,0.52978 3.43958,3.45395 0.87313,1.21963 3.5335,4.18588 5.91193,6.59167 2.378447,2.40579 4.415917,4.61168 4.527727,4.90196 0.29371,0.76257 -0.17449,1.86495 -0.94027,2.21386 -0.95917,0.43703 -1.23587,0.38451 -2.382087,-0.45218 z m 75.380517,0.43654 c -0.8091,-0.39092 -1.13844,-1.53243 -1.13844,-3.946 0,-7.73291 -4.43474,-27.4731 -6.82815,-30.39389 -0.24634,-0.30061 -1.33685,-0.84603 -2.42335,-1.21203 -2.39376,-0.80637 -2.91933,-1.23928 -2.91933,-2.40468 0,-1.37384 0.83368,-2.04609 2.28988,-1.84649 1.67184,0.22915 4.91504,1.64359 5.70848,2.4896 3.25579,3.47151 8.14122,23.8246 8.14122,33.91693 0,2.51153 -0.028,2.63852 -0.69714,3.16489 -0.76658,0.60299 -1.25486,0.65602 -2.13317,0.23167 z"
       id="path1" /></g></svg>
