<?xml version="1.0" encoding="UTF-8" standalone="no"?>
<!-- Created with Inkscape (http://www.inkscape.org/) -->

<svg
   width="107.88337mm"
   height="107.91631mm"
   viewBox="0 0 107.88337 107.91631"
   version="1.1"
   id="svg1"
   xml:space="preserve"
   inkscape:version="1.3.1 (9b9bdc1480, 2023-11-25, custom)"
   sodipodi:docname="whatsapp.svg"
   xmlns:inkscape="http://www.inkscape.org/namespaces/inkscape"
   xmlns:sodipodi="http://sodipodi.sourceforge.net/DTD/sodipodi-0.dtd"
   xmlns="http://www.w3.org/2000/svg"
   xmlns:svg="http://www.w3.org/2000/svg"><sodipodi:namedview
     id="namedview1"
     pagecolor="#ffffff"
     bordercolor="#000000"
     borderopacity="0.25"
     inkscape:showpageshadow="2"
     inkscape:pageopacity="0.0"
     inkscape:pagecheckerboard="0"
     inkscape:deskcolor="#d1d1d1"
     inkscape:document-units="mm"
     inkscape:zoom="0.72693603"
     inkscape:cx="203.59426"
     inkscape:cy="188.46225"
     inkscape:window-width="1850"
     inkscape:window-height="1016"
     inkscape:window-x="0"
     inkscape:window-y="0"
     inkscape:window-maximized="1"
     inkscape:current-layer="layer1" /><defs
     id="defs1" /><g
     inkscape:label="Layer 1"
     inkscape:groupmode="layer"
     id="layer1"
     transform="translate(-50.848401,-98.780678)"><path
       style="fill:#b0855c;fill-opacity:1"
       d="m 98.432303,206.31181 c -6.30831,-0.78128 -12.410183,-2.61306 -17.901396,-5.37399 l -2.151643,-1.08182 -8.295876,2.39864 c -8.981461,2.59687 -10.668778,2.85655 -12.745504,1.9615 -1.439558,-0.62042 -3.210623,-2.34678 -3.89719,-3.79879 -1.068723,-2.26023 -0.874794,-3.64193 1.818536,-12.9567 l 2.391937,-8.2724 -1.421158,-2.97239 c -7.220257,-15.10133 -7.173463,-32.09583 0.129909,-47.1797 9.679481,-19.99131 31.477893,-32.216157 53.487572,-29.996566 25.92866,2.614806 46.01868,22.704836 48.63349,48.633486 1.45845,14.46215 -3.5067,29.72359 -13.26644,40.77722 -11.60975,13.14891 -29.54446,19.9964 -46.782237,17.86151 z m 12.223427,-6.34326 c 19.56531,-2.58278 35.32016,-16.40518 40.17937,-35.2511 6.60198,-25.60504 -8.87192,-51.77938 -34.36271,-58.12504 -4.70114,-1.1703 -6.29337,-1.34722 -11.95467,-1.32832 -4.849077,0.0162 -5.788517,0.0947 -8.863537,0.74053 -6.389907,1.34207 -11.877871,3.55115 -16.668754,6.70971 -13.800649,9.09857 -21.828124,23.81771 -21.828124,40.02394 0,7.59758 1.680205,14.50932 5.303946,21.81844 1.012695,2.04262 1.840935,3.85537 1.840533,4.02833 -4.01e-4,0.17296 -1.189529,4.48399 -2.642507,9.58007 -1.452978,5.09608 -2.574866,9.43997 -2.493084,9.65309 0.08178,0.21312 0.323063,0.4544 0.536182,0.53618 0.21312,0.0818 4.55701,-1.0401 9.653091,-2.49308 5.096081,-1.45298 9.419252,-2.64178 9.607046,-2.64178 0.187793,0 1.778244,0.71529 3.534334,1.58954 6.361996,3.16722 11.110047,4.59348 17.919824,5.38291 2.13561,0.24757 7.56935,0.129 10.23906,-0.22342 z m 1.79949,-14.70198 c -15.564047,-1.91879 -28.786645,-11.1898 -35.67465,-25.01325 -2.472564,-4.96215 -3.934217,-10.04373 -4.558886,-15.84942 -0.801881,-7.4527 0.770469,-12.73112 5.074466,-17.03511 0.962668,-0.96267 2.51048,-2.19984 3.439584,-2.74927 3.540763,-2.09383 8.619234,-3.08191 11.286616,-2.19595 2.210833,0.73432 3.206543,1.9036 6.438243,7.56054 4.137277,7.24212 4.469157,7.98443 4.469417,9.99652 2.5e-4,2.04898 -0.2394,2.63044 -2.92125,7.08745 l -2.142037,3.55989 1.18522,1.78275 c 1.418177,2.13318 4.226997,4.90728 6.332247,6.25399 l 1.52792,0.9774 3.55013,-2.13616 c 4.44662,-2.67559 5.02938,-2.91564 7.07771,-2.91538 2.01983,2.5e-4 2.80166,0.34924 9.99652,4.46223 5.65686,3.23379 6.82439,4.22912 7.56053,6.44543 0.88597,2.66738 -0.10212,7.74585 -2.19595,11.28661 -1.27808,2.16128 -4.02757,4.91077 -6.18885,6.18885 -2.79313,1.65172 -5.40301,2.35555 -9.09761,2.45341 -1.74625,0.0463 -4.06797,-0.026 -5.15937,-0.16053 z m 7.8052,-6.43016 c 4.38683,-1.17357 7.62071,-4.52257 8.59428,-8.90022 0.57779,-2.59802 0.74929,-2.4076 -5.28698,-5.87013 -2.98318,-1.71121 -5.68511,-3.11453 -6.0043,-3.1185 -0.31919,-0.004 -2.58137,1.19865 -5.02708,2.67247 -5.11515,3.08247 -5.38982,3.14473 -8.02084,1.81811 -5.173707,-2.6087 -9.528267,-6.89596 -12.204487,-12.01587 -1.600346,-3.06163 -1.577596,-3.1824 1.58953,-8.43803 1.47382,-2.44571 2.67643,-4.7079 2.67247,-5.02709 -0.004,-0.31918 -1.40729,-3.02112 -3.1185,-6.00429 -3.462527,-6.03628 -3.272109,-5.86478 -5.870126,-5.28699 -4.377647,0.97357 -7.726648,4.20745 -8.900225,8.59428 -0.954098,3.56642 0.08579,11.19291 2.309313,16.93645 4.568907,11.80183 14.701478,20.73762 26.963825,23.77905 4.78898,1.18782 9.77631,1.53675 12.30312,0.86076 z"
       id="path1" /></g></svg>
